<?xml version="1.0" standalone="no"?><!DOCTYPE svg PUBLIC "-//W3C//DTD SVG 1.1//EN" "http://www.w3.org/Graphics/SVG/1.1/DTD/svg11.dtd"><svg t="1595236902584" class="icon" viewBox="0 0 1024 1024" version="1.1" xmlns="http://www.w3.org/2000/svg" p-id="10119" xmlns:xlink="http://www.w3.org/1999/xlink" width="256" height="256"><defs><style type="text/css"></style></defs><path d="M547.692308 712.615385v-80.123077c0-18.953846-15.384615-34.338462-34.338462-34.338462-18.953846 0-34.338462 15.384615-34.338461 34.338462V712.615385" fill="#FFF7A6" p-id="10120"></path><path d="M547.692308 727.384615c-8.123077 0-14.769231-6.646154-14.769231-14.76923v-80.123077c0-10.830769-8.738462-19.569231-19.569231-19.569231s-19.569231 8.738462-19.569231 19.569231V712.615385c0 8.123077-6.646154 14.769231-14.76923 14.76923s-14.769231-6.646154-14.769231-14.76923v-80.123077c0-27.076923 22.030769-49.107692 49.107692-49.107693s49.107692 22.030769 49.107692 49.107693V712.615385c0 8.123077-6.646154 14.769231-14.76923 14.76923z" fill="#1C1B55" p-id="10121"></path><path d="M342.646154 707.446154h381.169231c2.953846 0 5.292308 2.338462 5.292307 5.292308v186.215384c0 2.953846-2.338462 5.292308-5.292307 5.292308H342.646154c-2.953846 0-5.292308-2.338462-5.292308-5.292308V712.738462c0-2.953846 2.461538-5.292308 5.292308-5.292308z" fill="#FFFFFF" p-id="10122"></path><path d="M723.815385 919.015385H342.646154c-11.076923 0-20.061538-8.984615-20.061539-20.061539V712.738462c0-11.076923 8.984615-20.061538 20.061539-20.061539h381.169231c11.076923 0 20.061538 8.984615 20.061538 20.061539v186.215384c0 11.076923-8.984615 20.061538-20.061538 20.061539z m-371.692308-29.538462h362.215385V722.215385H352.123077v167.261538z" fill="#1C1B55" p-id="10123"></path><path d="M108.676923 686.153846h456.861539c2.953846 0 5.292308 2.338462 5.292307 5.292308v0.615384l-11.323077 101.415385-44.430769 29.415385-14.769231 96.738461c-0.369231 2.584615-2.584615 4.553846-5.292307 4.553846H175.630769c-2.584615 0-4.923077-1.969231-5.292307-4.553846l-17.353847-114.584615L103.384615 778.707692v-87.261538c0-2.953846 2.338462-5.292308 5.292308-5.292308z" fill="#80CFF5" p-id="10124"></path><path d="M495.138462 938.953846H175.630769c-9.969231 0-18.338462-7.138462-19.815384-17.107692l-16.246154-107.076923-43.2-23.015385c-4.8-2.584615-7.876923-7.630769-7.876923-13.046154v-87.261538c0-11.076923 8.984615-20.061538 20.061538-20.061539h456.984616c11.076923 0 20.061538 8.984615 20.061538 20.061539 0 0.738462 0 1.476923-0.123077 2.215384l-11.323077 101.415385c-0.492308 4.307692-2.830769 8.246154-6.523077 10.707692l-39.015384 25.846154-13.784616 90.338462c-1.353846 9.846154-9.723077 16.984615-19.692307 16.984615z m-311.384616-29.538461h303.138462l13.538461-88.738462c0.615385-4.061538 2.953846-7.753846 6.4-10.092308l38.646154-25.6 9.353846-84.061538H118.153846v68.923077l41.969231 22.276923c4.061538 2.215385 7.015385 6.153846 7.630769 10.830769l16 106.461539z m381.907692-208.492308z" fill="#1C1B55" p-id="10125"></path><path d="M722.092308 613.415385h186.092307c2.953846 0 5.292308 2.338462 5.292308 5.292307v294.4c0 2.953846-2.338462 5.292308-5.292308 5.292308H722.092308c-2.953846 0-5.292308-2.338462-5.292308-5.292308V618.707692c0-2.953846 2.338462-5.292308 5.292308-5.292307z" fill="#D4F1FF" p-id="10126"></path><path d="M908.184615 933.169231H722.092308c-11.076923 0-20.061538-8.984615-20.061539-20.061539V618.707692c0-11.076923 8.984615-20.061538 20.061539-20.061538h186.092307c11.076923 0 20.061538 8.984615 20.061539 20.061538v294.4c0 11.076923-8.984615 20.061538-20.061539 20.061539z m-176.615384-29.538462h167.261538V628.184615H731.569231v275.446154z m176.615384-275.446154z" fill="#1C1B55" p-id="10127"></path><path d="M816 336.738462c28.430769 0 51.446154 23.015385 51.446154 51.446153v219.938462c0 2.953846-2.338462 5.292308-5.292308 5.292308h-92.184615c-2.953846 0-5.292308-2.338462-5.292308-5.292308V388.184615c-0.123077-28.430769 23.015385-51.446154 51.323077-51.446153z" fill="#FFF7A6" p-id="10128"></path><path d="M862.153846 628.184615h-92.184615c-11.076923 0-20.061538-8.984615-20.061539-20.061538V388.184615c0-36.430769 29.661538-66.215385 66.215385-66.215384s66.215385 29.661538 66.215385 66.215384v219.938462c-0.123077 11.076923-9.107692 20.061538-20.184616 20.061538z m-82.830769-29.538461h73.230769v-210.461539c0-20.184615-16.492308-36.676923-36.676923-36.676923s-36.676923 16.492308-36.676923 36.676923v210.461539z" fill="#1C1B55" p-id="10129"></path><path d="M797.538462 458.707692l-80.246154 3.692308" fill="#80CFF5" p-id="10130"></path><path d="M717.169231 476.307692c-7.384615 0-13.415385-5.784615-13.784616-13.16923-0.369231-7.630769 5.538462-14.153846 13.169231-14.4l80.246154-3.692308c7.630769-0.369231 14.153846 5.538462 14.4 13.169231 0.369231 7.630769-5.538462 14.153846-13.169231 14.4l-80.246154 3.692307h-0.615384z" fill="#1C1B55" p-id="10131"></path><path d="M820.430769 494.646154l89.846154 6.769231" fill="#80CFF5" p-id="10132"></path><path d="M910.276923 515.2h-0.984615l-89.846154-6.769231c-7.630769-0.615385-13.292308-7.261538-12.8-14.769231 0.615385-7.630769 7.138462-13.292308 14.769231-12.8l89.846153 6.769231c7.630769 0.615385 13.292308 7.261538 12.8 14.769231-0.492308 7.261538-6.646154 12.8-13.784615 12.8z" fill="#1C1B55" p-id="10133"></path><path d="M817.107692 571.446154l102.769231-6.030769" fill="#80CFF5" p-id="10134"></path><path d="M817.107692 585.353846c-7.261538 0-13.292308-5.661538-13.784615-13.046154-0.492308-7.630769 5.415385-14.153846 13.046154-14.646154l102.769231-6.030769c7.630769-0.369231 14.153846 5.415385 14.646153 13.046154 0.492308 7.630769-5.415385 14.153846-13.046153 14.646154l-102.769231 6.030769h-0.861539z" fill="#1C1B55" p-id="10135"></path><path d="M806.892308 362.215385l-46.892308-53.538462" fill="#80CFF5" p-id="10136"></path><path d="M806.892308 376c-3.815385 0-7.630769-1.6-10.461539-4.676923L749.538462 317.784615c-5.046154-5.784615-4.430769-14.523077 1.230769-19.56923 5.784615-5.046154 14.523077-4.430769 19.569231 1.230769l46.892307 53.538461c5.046154 5.784615 4.430769 14.523077-1.230769 19.569231-2.584615 2.338462-5.784615 3.446154-9.107692 3.446154z" fill="#1C1B55" p-id="10137"></path><path d="M665.846154 705.476923c17.107692-102.153846 11.2-172.307692-17.723077-210.584615s-81.230769-34.707692-157.046154 10.707692c67.2-1.969231 102.523077 19.076923 106.338462 63.015385 3.692308 44.061538 4.8 89.6 3.2 136.738461h65.230769z" fill="#80CFF5" p-id="10138"></path><path d="M665.846154 720.246154h-65.230769c-4.061538 0-7.876923-1.6-10.584616-4.553846-2.830769-2.830769-4.307692-6.769231-4.184615-10.707693 1.6-46.4 0.492308-91.815385-3.2-135.015384-3.938462-46.646154-53.907692-50.584615-91.2-49.6-6.769231 0.246154-12.676923-4.184615-14.646154-10.584616s0.861538-13.415385 6.523077-16.861538c40.369231-24.246154 73.969231-36.923077 102.769231-38.892308 31.384615-2.092308 56.123077 8.615385 73.723077 31.876923C691.692308 528 698.461538 600.615385 680.492308 707.938462c-1.230769 7.015385-7.384615 12.307692-14.646154 12.307692z m-49.969231-29.538462h37.415385c13.907692-90.830769 8.246154-153.723077-16.861539-186.953846-11.446154-15.261538-26.707692-21.661538-48.123077-20.184615-12.923077 0.861538-27.692308 4.8-44.307692 11.569231 12.061538 2.707692 22.523077 6.769231 31.630769 12.184615 22.030769 13.046154 34.215385 33.353846 36.553846 60.184615 3.323077 39.507692 4.553846 80.861538 3.692308 123.2z" fill="#1C1B55" p-id="10139"></path><path d="M406.153846 673.107692L390.523077 100.923077" fill="#80CFF5" p-id="10140"></path><path d="M406.153846 687.876923c-8 0-14.523077-6.4-14.769231-14.4L375.753846 101.292308c-0.246154-8.123077 6.153846-14.892308 14.4-15.138462 8.123077-0.246154 14.892308 6.153846 15.138462 14.4L420.923077 672.738462c0.246154 8.123077-6.153846 14.892308-14.4 15.138461h-0.369231z" fill="#1C1B55" p-id="10141"></path><path d="M261.169231 694.030769c-1.353846 0-2.707692-0.246154-4.061539-0.615384-7.876923-2.215385-12.430769-10.461538-10.092307-18.215385 45.907692-160.738462 91.076923-265.723077 137.96923-321.107692 47.015385-55.507692 139.692308-113.107692 283.2-176.246154 7.507692-3.323077 16.123077 0.123077 19.446154 7.630769 3.323077 7.507692-0.123077 16.123077-7.630769 19.446154-137.476923 60.307692-229.169231 116.923077-272.615385 168.246154-43.569231 51.446154-88 155.815385-132.184615 310.153846-1.723077 6.4-7.630769 10.707692-14.030769 10.707692z" fill="#1C1B55" p-id="10142"></path><path d="M358.153846 688.615385c-7.630769 0-14.153846-5.907692-14.769231-13.661539-10.338462-135.507692-27.446154-230.4-50.953846-281.846154-22.646154-49.846154-67.076923-91.815385-131.938461-124.676923-7.261538-3.692308-10.215385-12.553846-6.523077-19.815384 3.692308-7.261538 12.553846-10.215385 19.815384-6.523077 71.015385 35.938462 119.876923 82.707692 145.6 138.830769 25.230769 55.384615 42.707692 150.892308 53.538462 291.815385a14.769231 14.769231 0 0 1-13.661539 15.876923h-1.107692z" fill="#1C1B55" p-id="10143"></path><path d="M386.461538 287.384615l-30.523076-38.646153c-13.661538-17.230769-35.569231-25.723077-57.23077-22.03077l-30.646154 5.169231 20.307693 29.415385c11.2 16.369231 29.784615 26.092308 49.6 26.092307H386.461538z" fill="#80CFF5" p-id="10144"></path><path d="M386.461538 302.153846h-48.492307c-24.738462 0-47.753846-12.184615-61.784616-32.492308L256 240.246154c-2.830769-4.184615-3.446154-9.476923-1.476923-14.153846s6.153846-8 11.2-8.861539l30.646154-5.169231c26.953846-4.553846 54.276923 6.030769 71.261538 27.446154l30.523077 38.646154c3.569231 4.430769 4.184615 10.461538 1.723077 15.630769-2.584615 5.169231-7.753846 8.369231-13.415385 8.369231z m-93.046153-59.569231l7.138461 10.338462c8.492308 12.307692 22.523077 19.692308 37.415385 19.692308h17.969231l-11.569231-14.646154c-10.338462-13.046154-26.830769-19.446154-43.2-16.615385l-7.753846 1.230769z" fill="#1C1B55" p-id="10145"></path><path d="M222.153846 407.753846a76.307692 33.723077 90 1 0 67.446154 0 76.307692 33.723077 90 1 0-67.446154 0Z" fill="#D4F1FF" p-id="10146"></path><path d="M255.876923 498.707692c-28.061538 0-48.492308-38.276923-48.492308-91.076923s20.430769-91.076923 48.492308-91.076923 48.492308 38.276923 48.492308 91.076923-20.430769 91.076923-48.492308 91.076923z m0-152.492307c-0.738462 0-5.415385 2.338462-10.338461 13.538461-5.415385 12.430769-8.615385 29.907692-8.615385 48s3.076923 35.569231 8.615385 48c4.923077 11.2 9.6 13.538462 10.338461 13.538462s5.415385-2.338462 10.338462-13.538462c5.415385-12.430769 8.615385-29.907692 8.615384-48s-3.076923-35.569231-8.615384-48c-5.046154-11.2-9.723077-13.538462-10.338462-13.538461z" fill="#1C1B55" p-id="10147"></path><path d="M163.569231 579.692308a59.446154 33.723077 0 1 0 118.892307 0 59.446154 33.723077 0 1 0-118.892307 0Z" fill="#80CFF5" p-id="10148"></path><path d="M223.015385 628.184615c-18.338462 0-35.938462-4.184615-49.23077-11.815384C157.907692 607.384615 148.923077 594.092308 148.923077 579.692308s9.107692-27.692308 24.861538-36.676923c13.415385-7.630769 30.892308-11.815385 49.23077-11.815385s35.938462 4.184615 49.230769 11.815385c15.753846 8.984615 24.861538 22.276923 24.861538 36.676923s-9.107692 27.692308-24.861538 36.676923c-13.292308 7.630769-30.769231 11.815385-49.230769 11.815384z m0-67.323077c-26.830769 0-44.676923 11.446154-44.676923 18.953847s17.846154 18.953846 44.676923 18.953846 44.676923-11.446154 44.676923-18.953846-17.846154-18.953846-44.676923-18.953847z" fill="#1C1B55" p-id="10149"></path><path d="M452.881338 562.146259a59.446154 33.723077 26.002 1 0 29.568564-60.619169 59.446154 33.723077 26.002 1 0-29.568564 60.619169Z" fill="#80CFF5" p-id="10150"></path><path d="M491.2 586.584615c-14.276923 0-29.907692-3.938462-44.8-11.2-16.492308-8-30.4-19.446154-39.138462-32.246153-10.215385-15.015385-12.553846-31.015385-6.276923-43.815385 6.276923-12.923077 20.307692-20.923077 38.4-22.030769 15.384615-0.984615 32.984615 2.953846 49.476923 10.953846 16.492308 8 30.4 19.446154 39.138462 32.246154 10.215385 15.015385 12.553846 31.015385 6.276923 43.815384-6.276923 12.923077-20.307692 20.923077-38.4 22.03077-1.476923 0.123077-3.076923 0.246154-4.676923 0.246153z m-47.138462-79.876923c-0.984615 0-1.846154 0-2.830769 0.123077-7.015385 0.492308-12.307692 2.584615-13.661538 5.538462-1.476923 2.953846 0.123077 8.369231 4.061538 14.153846 5.784615 8.492308 15.876923 16.615385 27.692308 22.4 11.815385 5.784615 24.492308 8.738462 34.707692 8.123077 7.015385-0.492308 12.307692-2.584615 13.661539-5.538462 3.323077-6.769231-7.753846-24.861538-31.753846-36.553846-10.707692-5.415385-22.153846-8.246154-31.876924-8.246154z" fill="#1C1B55" p-id="10151"></path><path d="M723.2 287.876923l-42.584615 9.846154c-24.246154 5.661538-49.6-2.584615-65.969231-21.292308l-25.846154-29.538461 37.046154-9.846154c23.630769-6.276923 48.738462 0.738462 65.6 18.215384l31.753846 32.615385z" fill="#80CFF5" p-id="10152"></path><path d="M665.353846 314.215385c-23.384615 0-45.907692-9.969231-61.784615-28.061539l-25.846154-29.538461c-3.323077-3.815385-4.553846-9.107692-2.953846-14.03077 1.476923-4.923077 5.415385-8.615385 10.338461-9.96923l37.046154-9.846154c28.676923-7.630769 59.446154 0.861538 80 22.276923l31.507692 32.615384c3.692308 3.815385 5.046154 9.353846 3.569231 14.4s-5.661538 8.984615-10.830769 10.215385l-42.584615 9.846154c-6.030769 1.353846-12.307692 2.092308-18.461539 2.092308z m-49.723077-59.2l10.215385 11.692307c12.8 14.646154 32.492308 21.046154 51.446154 16.615385l17.107692-3.938462-13.415385-13.784615a52.796308 52.796308 0 0 0-51.2-14.276923l-14.153846 3.692308z" fill="#1C1B55" p-id="10153"></path><path d="M446.769231 341.661538l31.261538-4.061538c26.215385-3.446154 50.215385 15.138462 53.661539 41.353846 0.123077 0.492308 0.123077 0.984615 0.123077 1.476923l4.061538 42.338462-47.138461-12.061539c-17.6-4.430769-31.015385-18.461538-34.953847-36.184615l-7.015384-32.861539z" fill="#D4F1FF" p-id="10154"></path><path d="M535.876923 437.538462c-1.230769 0-2.461538-0.123077-3.692308-0.492308l-47.138461-12.061539c-23.138462-5.907692-40.615385-24.123077-45.661539-47.384615l-7.138461-32.738462c-0.861538-4.061538 0-8.246154 2.338461-11.692307s6.030769-5.661538 10.215385-6.153846l31.261538-4.061539c34.215385-4.430769 65.723077 19.815385 70.153847 54.030769 0.123077 0.615385 0.123077 1.353846 0.246153 1.969231l4.061539 42.338462c0.492308 4.8-1.476923 9.476923-5.046154 12.676923-2.707692 2.338462-6.153846 3.569231-9.6 3.569231z m-71.261538-83.323077l3.692307 17.107692c2.707692 12.307692 11.938462 21.907692 24.123077 25.107692l26.707693 6.892308-2.092308-21.292308c0-0.369231-0.123077-0.738462-0.123077-1.107692-2.338462-18.092308-18.953846-30.892308-37.046154-28.553846l-15.261538 1.846154z" fill="#1C1B55" p-id="10155"></path><path d="M484.553846 268.923077l-32-29.784615c-18.215385-16.984615-25.6-42.461538-19.2-66.584616l10.092308-38.030769 28.923077 25.230769c18.338462 16 26.584615 40.738462 21.538461 64.615385l-9.353846 44.553846z" fill="#D4F1FF" p-id="10156"></path><path d="M484.553846 283.692308c-3.692308 0-7.261538-1.353846-10.092308-3.938462l-32-29.784615c-22.276923-20.676923-31.261538-51.815385-23.384615-81.107693l10.092308-38.030769c1.353846-4.923077 5.046154-8.861538 9.969231-10.338461 4.923077-1.476923 10.215385-0.369231 14.030769 2.953846l28.923077 25.230769c22.4 19.569231 32.492308 49.723077 26.338461 78.769231l-9.353846 44.430769c-1.107692 5.169231-4.923077 9.476923-9.969231 11.076923-1.6 0.492308-3.076923 0.738462-4.553846 0.738462z m-32.984615-122.338462l-3.938462 15.015385c-4.923077 18.830769 0.738462 38.646154 15.015385 51.938461l12.8 11.938462 3.938461-18.830769c3.938462-18.584615-2.584615-37.907692-16.861538-50.461539l-10.953846-9.6z" fill="#1C1B55" p-id="10157"></path><path d="M802.338462 407.384615l-75.692308-16.984615" fill="#80CFF5" p-id="10158"></path><path d="M802.338462 422.030769c-1.107692 0-2.092308-0.123077-3.2-0.369231l-75.692308-16.984615c-7.876923-1.723077-12.923077-9.6-11.076923-17.6 1.723077-7.876923 9.6-12.923077 17.6-11.076923l75.692307 16.984615c7.876923 1.723077 12.923077 9.6 11.076924 17.6-1.6 6.892308-7.753846 11.446154-14.4 11.446154z" fill="#1C1B55" p-id="10159"></path><path d="M832.246154 433.6l83.076923-6.153846" fill="#80CFF5" p-id="10160"></path><path d="M832.123077 448.369231c-7.630769 0-14.030769-5.907692-14.646154-13.661539-0.615385-8.123077 5.538462-15.138462 13.538462-15.753846l83.076923-6.153846c8.123077-0.615385 15.138462 5.538462 15.753846 13.538462 0.615385 8.123077-5.538462 15.138462-13.538462 15.753846l-83.076923 6.153846c-0.369231 0.123077-0.738462 0.123077-1.107692 0.123077z" fill="#1C1B55" p-id="10161"></path><path d="M814.4 534.892308l-97.107692-8" fill="#80CFF5" p-id="10162"></path><path d="M814.4 550.523077h-1.230769l-97.107693-8c-8.615385-0.738462-15.015385-8.246154-14.276923-16.861539 0.738462-8.615385 8.246154-15.015385 16.861539-14.276923l97.107692 8c8.615385 0.738462 15.015385 8.246154 14.276923 16.861539-0.738462 8.123077-7.630769 14.276923-15.630769 14.276923z" fill="#1C1B55" p-id="10163"></path><path d="M836.676923 375.138462l60.8-44.307693" fill="#80CFF5" p-id="10164"></path><path d="M836.676923 389.907692c-4.553846 0-8.984615-2.092308-11.938461-6.030769-4.8-6.523077-3.323077-15.753846 3.2-20.553846l60.8-44.307692c6.523077-4.8 15.753846-3.323077 20.553846 3.2 4.8 6.523077 3.323077 15.753846-3.2 20.553846l-60.8 44.307692c-2.461538 1.846154-5.538462 2.830769-8.615385 2.830769z" fill="#1C1B55" p-id="10165"></path><path d="M120 725.046154l433.230769-5.538462v-17.107692h-433.230769z" fill="#D4F1FF" p-id="10166"></path><path d="M731.446154 887.138462l167.630769-16.492308v34.215384H731.446154z" fill="#80CFF5" p-id="10167"></path><path d="M559.015385 889.723077l8-28.061539c2.092308-7.384615 7.138462-13.415385 14.030769-16.861538l10.830769-5.415385c6.769231-3.323077 11.446154-9.723077 12.676923-17.230769l16-98.953846h-37.661538l-8.492308 67.815385c-0.738462 6.276923-4.307692 11.938462-9.476923 15.507692L531.2 829.538462c-1.107692 0.738462-1.846154 1.969231-2.092308 3.323076l-9.353846 56.738462h39.261539z" fill="#D4F1FF" p-id="10168"></path></svg>