<?xml version="1.0" standalone="no"?><!DOCTYPE svg PUBLIC "-//W3C//DTD SVG 1.1//EN" "http://www.w3.org/Graphics/SVG/1.1/DTD/svg11.dtd"><svg t="1580363444929" class="icon" viewBox="0 0 1024 1024" version="1.1" xmlns="http://www.w3.org/2000/svg" p-id="1332" xmlns:xlink="http://www.w3.org/1999/xlink" width="200" height="200"><defs><style type="text/css"></style></defs><path d="M928.992 448a15.872 15.872 0 1 0 0 31.712c17.44 0 31.328 13.952 31.328 32.192v352.192c0 18.24-13.888 32.192-31.328 32.192H269.44a15.872 15.872 0 1 0 0 31.68H928.96C963.776 928 992 899.072 992 864.096V511.904C992 476.96 963.776 448 928.992 448z" fill="#F05542" p-id="1333"></path><path d="M544 384v358.912c0 44.416 35.84 80.96 80 80.96s80-36.544 80-80.96V384h-32V742.912c0 27.52-21.248 48.96-48 48.96s-48-21.44-48-48.96V384h-32z" fill="#2B4255" p-id="1334"></path><path d="M650.304 384a16 16 0 1 0 0 32h50.688a16 16 0 1 0 0-32h-50.688z" fill="#2B4255" p-id="1335"></path><path d="M781.056 384v358.912c0 44.416 35.84 80.96 80 80.96s80-36.544 80-80.96V384h-160z m32 32h96v326.912c0 27.52-21.248 48.96-48 48.96s-48-21.44-48-48.96V416z" fill="#2B4255" p-id="1336"></path><path d="M765.312 384a16 16 0 1 0 0 32h191.2a16 16 0 1 0 0-32h-191.2z" fill="#2B4255" p-id="1337"></path><path d="M704 449.6v28.8h77.632v-28.8H704z m-370.368-2.368v33.504H544v-33.504h-210.368z" fill="#F05542" p-id="1338"></path><path d="M189.632 192c-26.336 0-48 21.664-48 48 0 26.304 21.664 48 48 48 26.304 0 48-21.696 48-48 0-26.336-21.696-48-48-48z m0 32c9.024 0 16 6.944 16 16 0 8.992-6.976 16-16 16a15.776 15.776 0 0 1-16-16c0-9.056 6.976-16 16-16z m160-176c-35.168 0-64 28.8-64 64 0 35.136 28.832 64 64 64 35.136 0 64-28.864 64-64 0-35.2-28.864-64-64-64z m0 32c17.856 0 32 14.112 32 32 0 17.824-14.144 32-32 32s-32-14.176-32-32c0-17.888 14.144-32 32-32z" fill="#2B4255" p-id="1339"></path><path d="M749.6 112a16 16 0 0 1-16 16 16 16 0 0 1-16-16 16 16 0 0 1 16-16 16 16 0 0 1 16 16z m-64 48a16 16 0 0 1-16 16 16 16 0 0 1-16-16 16 16 0 0 1 16-16 16 16 0 0 1 16 16z m0 64a16 16 0 0 1-16 16 16 16 0 0 1-16-16 16 16 0 0 1 16-16 16 16 0 0 1 16 16z m128-64a16 16 0 0 1-16 16 16 16 0 0 1-16-16 16 16 0 0 1 16-16 16 16 0 0 1 16 16z m0 64a16 16 0 0 1-16 16 16 16 0 0 1-16-16 16 16 0 0 1 16-16 16 16 0 0 1 16 16z m-64 48a16 16 0 0 1-16 16 16 16 0 0 1-16-16 16 16 0 0 1 16-16 16 16 0 0 1 16 16z" fill="#2B4255" p-id="1340"></path><path d="M397.632 912v32h64v-32h-64z" fill="#F05542" p-id="1341"></path><path d="M413.632 928a16 16 0 1 0 0 32h32a16 16 0 1 0 0-32h-32z m400-16v32h64v-32h-64z" fill="#F05542" p-id="1342"></path><path d="M829.632 928a16 16 0 1 0 0 32h32a16 16 0 1 0 0-32h-32z" fill="#F05542" p-id="1343"></path><path d="M206.88 354.464a16 16 0 0 0-15.744 16.192v107.68h-0.192a232.128 232.128 0 0 0-156 257.088 232.032 232.032 0 0 0 228.864 194.976 232.192 232.192 0 0 0 231.552-215.68 16 16 0 1 0-31.936-2.24 199.744 199.744 0 0 1-199.616 185.92 199.68 199.68 0 0 1-197.248-168.096 199.712 199.712 0 0 1 134.432-221.568 16 16 0 0 0 0.384 0l11.2-4a16 16 0 0 0 10.56-15.04v-118.976a16 16 0 0 0-16.256-16.16z m113.696 0a16 16 0 0 0-15.776 16.192V489.6a16 16 0 0 0 10.56 15.04l11.456 4.16a16 16 0 0 0 0.384 0 199.232 199.232 0 0 1 123.2 117.184 16 16 0 1 0 29.76-11.616 232.768 232.768 0 0 0-70.432-96.384h-0.032a231.488 231.488 0 0 0-72.064-39.456h-0.32l-0.512-0.32V370.56a16 16 0 0 0-16.256-16.192z m154.976 285.696a16 16 0 0 0-15.424 19.328c1.152 5.728 1.984 11.52 2.624 17.376a16 16 0 1 0 31.808-3.456 232.32 232.32 0 0 0-3.072-20.16 16 16 0 0 0-15.936-13.088z" fill="#2B4255" p-id="1344"></path><path d="M175.68 354.4a16 16 0 1 0 0 32h174.624a16 16 0 1 0 0-32H175.68zM509.824 384a16 16 0 1 0 0 32h96.672a16 16 0 1 0 0-32h-96.672z" fill="#2B4255" p-id="1345"></path></svg>